<?xml version="1.0" encoding="iso-8859-1"?>
<!-- Uploaded to: SVG Repo, www.svgrepo.com, Generator: SVG Repo Mixer Tools -->
<!DOCTYPE svg PUBLIC "-//W3C//DTD SVG 1.1//EN" "http://www.w3.org/Graphics/SVG/1.1/DTD/svg11.dtd">
<svg fill="white" version="1.1" id="Capa_1" xmlns="http://www.w3.org/2000/svg" xmlns:xlink="http://www.w3.org/1999/xlink" 
	 width="800px" height="800px" viewBox="0 0 963.4 963.4" xml:space="preserve"
	>
<g>
	<path d="M114.3,59.2H69.7c-33.1,0-60,26.9-60,60V903.4c0,33.1,26.9,60,60,60h824c33.1,0,60-26.9,60-60V119.2c0-33.1-26.9-60-60-60
		H568.9c0,0.3,0,0.5,0,0.8v420.3c0,25.6-10.2,49.2-28.8,66.5c-17,15.799-39.2,24.5-62.4,24.5c-12.4,0-24.4-2.5-35.7-7.301
		c-11.899-5.1-22.399-12.6-31.2-22.301L341.601,466.1l-69.2,75.599C263.5,551.4,253,558.9,241.2,564
		c-11.3,4.9-23.3,7.301-35.7,7.301c-23.2,0-45.4-8.701-62.4-24.5c-18.6-17.301-28.8-40.9-28.8-66.5V60
		C114.3,59.7,114.3,59.4,114.3,59.2z"/>
	<path d="M228.2,501.1l90.6-99.1c6.101-6.699,14.5-10.1,22.9-10.1s16.7,3.4,22.9,10.1l90.6,99.1c6.4,7,14.6,10.1,22.6,10.1
		c15.9,0,31.301-12.299,31.301-31.099V60c0-0.3,0-0.5,0-0.8C508.7,26.4,482,0,449.101,0H234.3c-32.9,0-59.6,26.4-60,59.2
		c0,0.3,0,0.5,0,0.8v420.3c0,18.799,15.3,31.1,31.3,31.1C213.6,511.301,221.7,508.199,228.2,501.1z"/>
</g>
</svg>